<?xml version="1.0" encoding="UTF-8" standalone="no"?>
<svg
   viewBox="0 0 800 799.99997"
   version="1.1"
   id="svg14"
   sodipodi:docname="favicon.svg"
   inkscape:version="1.4 (e7c3feb100, 2024-10-09)"
   inkscape:export-filename="TRI de ML Logo VF.jpg"
   inkscape:export-xdpi="96"
   inkscape:export-ydpi="96"
   width="800"
   height="800"
   xmlns:inkscape="http://www.inkscape.org/namespaces/inkscape"
   xmlns:sodipodi="http://sodipodi.sourceforge.net/DTD/sodipodi-0.dtd"
   xmlns="http://www.w3.org/2000/svg"
   xmlns:svg="http://www.w3.org/2000/svg">
  <sodipodi:namedview
     id="namedview16"
     pagecolor="#ffffff"
     bordercolor="#666666"
     borderopacity="1.0"
     inkscape:pageshadow="2"
     inkscape:pageopacity="0.0"
     inkscape:pagecheckerboard="0"
     showgrid="false"
     inkscape:zoom="1"
     inkscape:cx="293"
     inkscape:cy="275.5"
     inkscape:window-width="3840"
     inkscape:window-height="2094"
     inkscape:window-x="0"
     inkscape:window-y="0"
     inkscape:window-maximized="1"
     inkscape:current-layer="g1"
     inkscape:showpageshadow="2"
     inkscape:deskcolor="#d1d1d1" />
  <defs
     id="defs4">
    <style
       id="style2">.cls-1{font-size:62px;font-family:FlighterPERSONALUSEONLY, Flighter PERSONAL USE ONLY;}.cls-1,.cls-2{fill:#5082ba;}.cls-3{fill:#e56657;}.cls-4{fill:#f4ec5a;}</style>
  </defs>
  <g
     id="Vector">
    <g
       id="draw">
      <g
         id="g1">
        <g
           id="g2"
           transform="matrix(1.250283,0,0,1.250283,-99.950663,-113.97863)">
          <path
             id="wave-2"
             data-name="wave"
             class="cls-3"
             d="m 88.37,509.30046 c 0,0 16.7,-30.21 112.5,-30.5 162.5,-0.5 237.5,36.5 375.5,37.5 118.1,0.86 135,-17 135,-17 0,0 -23.5,35.5 -135,36 -139,0.62 -224,-35 -376.5,-37.5 -100.87,-0.27 -111.5,11.5 -111.5,11.5 z"
             style="stroke:none"
             sodipodi:nodetypes="ccccccc" />
          <path
             id="middle"
             class="cls-2"
             d="m 289.30535,410.99467 c 0,0 -24.237,3.21418 -47.4599,5.93378 -29.31578,3.43313 -63.44675,6.43279 -87.39545,4.21201 -22.29,-2.07 -40.71,-4 -53.34,-5.3 1.82,13.04667 3.63667,26.09333 5.45,39.14 0.53,3.82 2.37,12.92 4.03,21.3 29.45288,-6.75782 59.55287,-10.29525 89.77,-10.55 m 0,0 c 41.49226,-0.12767 77.27978,2.18953 109.86797,5.72808 m 0,0 c 2.65271,0.28804 5.28421,0.58417 7.89587,0.88774 m 47.7268,6.0011 c 60.13083,8.01549 113.22208,21.01122 181.32585,24.15966 m 9.66025,0.72444 c 5.25616,0.16734 13.62617,-0.0401 19.02326,-10e-4 44,0.32 80.43,-5 112,-11.43 3,-8 5.06,-17.34 6.88,-26.44 2.13,-10.56 5.518,-38.68071 6.188,-42.52071"
             style="fill:none;stroke:none;stroke-opacity:1"
             sodipodi:nodetypes="cscccccccccccccccc" />
          <path
             id="sun"
             class="cls-4"
             d="m 700.95846,412.01971 c -0.33117,-13.66058 -1.77593,-43.1017 -3.96846,-56.58925 -10.34814,-54.8946 -32.41211,-102.32366 -63.34,-140.89 -23.67,-29 -93.77,-99.61 -206.3,-109.59 -131.21,-11.62 -219,68.1 -231.8,80.12 -89.82,84.39 -94.18,193.1 -94.62,213.07 7.69,0.78 19.71,2.05 34.45,3.75 37.14,4.31 51.49466,3.35414 66.23466,4.40414 31.63331,-3.1464 34.66558,-0.83456 62.25248,-7.31797 23.38626,-8.21168 27.5899,-7.00483 38.46264,-16.0412 6.32931,-5.2603 15.83892,-10.23039 22.14171,-14.56839"
             style="fill:none;stroke:none;stroke-opacity:1"
             sodipodi:nodetypes="cccccccccsc" />
          <path
             id="middle-7"
             class="cls-2"
             d="m 700.928,422.83977 c -5.2806,-2.9188 -39.16721,-16.78959 -43.39651,-21.09273 -3.19,-3.26 -4.8,-4.94 -5.61,-7.77 -0.9,-3.14 0,-4.78 -0.9,-11.4 -0.63,-4.75 -1.31,-5.75 -2.17,-6.15 -1.62,-0.76 -3.85,0.62 -5.79,1.81 -2.76,1.7 -29,17 -36,19.78 14.955,11.35889 26.6361,22.63035 37.61,37.87 -15.0452,12.96639 -35.08374,32.24187 -51.53184,43.37508 -13,8.82 -24.32291,17.29936 -36.30291,23.96936 m -9.66025,-0.72444 c 15.82646,-22.7438 40.3452,-48.18874 64.005,-62.61 -4.3889,-11.926 -13.686,-21.39427 -25.53,-26 -17.12244,11.87778 -23.26596,28.34529 -29.97974,39.02576 -6.51079,10.35757 -12.68988,15.17196 -19.9353,19.62896 -4.96234,3.05257 -8.12463,3.66436 -12.32126,5.32614 -4.27034,1.69097 -10.79656,2.48927 -15.53745,2.91408"
             style="fill:none;stroke:none;stroke-opacity:1"
             clip-path="none"
             sodipodi:nodetypes="cccccccccccccsssc" />
          <path
             id="sun-4"
             class="cls-4"
             d="m 564.29318,403.34197 c 18.9673,-13.06473 44.46471,-33.03107 59.46831,-50.50493 -19.5525,-10.93407 -40.8503,-18.40097 -62.95,-22.07 6.95922,-2.42676 14.2292,-3.84777 21.59,-4.22001 15.87,-0.79 27.66,3.62001 39,8.00001 19.33,7.46 30.09,11.61 38,23 8.71,12.5 5.49,26 4.88,34.11 4.43,3.37 36.67697,20.36267 36.67697,20.36267 m -36.75697,-67.88267 c -10.36,0 -18.76,-8 -18.76,-17.79001 0,-9.79 8.4,-17.79 18.76,-17.79 10.36,0 18.77,8 18.77,17.79 0,9.79001 -8.42,17.84001 -18.79,17.84001 z"
             style="fill:none;stroke:none;stroke-opacity:1"
             clip-path="none"
             sodipodi:nodetypes="cccccccccssscc" />
          <ellipse
             id="cycle.wheel.front"
             class="cls-2"
             cx="506.13147"
             cy="422.57709"
             style="fill:none;stroke:none;stroke-opacity:1"
             rx="29.105"
             ry="46" />
          <ellipse
             id="cycle.wheel.back"
             class="cls-2"
             cx="350.20151"
             cy="422.57709"
             style="fill:none;stroke:none;stroke-opacity:1"
             rx="29.105"
             ry="46" />
          <path
             id="middle-5"
             class="cls-2"
             d="m 507.87774,480.79198 c -2.90349,0.37117 -9.39412,0.442 -15.24574,-0.63784 -8.08317,-1.49164 -15.40455,-5.07631 -15.82809,-5.32826 -15.08003,-8.97065 -23.26164,-23.22377 -24.43242,-25.51888 -1.77,-3.56 -10.4,-21.79 -3.8,-43.82 8.14,-27.17 32.66,-37.58 35.93,-38.9 -0.80654,-1.96961 -1.7488,-3.88087 -2.82,-5.72 -1.68979,-2.92885 -3.70234,-5.65921 -6,-8.14 -2.24,-2.41 -3.6,-3.86 -5.79,-5.07 -2.84991,-1.44927 -6.02574,-2.13817 -9.22,-2 -5.39,-0.09 -11.8,-0.36 -20.26,-0.9 3.16235,5.59931 6.79191,10.92155 10.85,15.91 3,3.7 5.55,6.29 6.88,11 1.1058,3.40924 1.1058,7.08076 0,10.49 -1,2.87 -2.85,4.82 -7.06,8.32 -4.10245,3.36892 -8.38907,6.5071 -12.84,9.4 -5.44,3.7 -14,9.61 -21.71,18.45 -2.38521,2.74834 -4.57713,5.65864 -6.56,8.71 -0.45442,4.66024 -2.94204,25.02703 -19.77753,40.15366 -0.28678,0.25768 -6.49181,5.14739 -12.60452,7.80125 -6.18879,2.68688 -12.28627,3.13823 -12.59383,3.39249 m -46.90334,-6.01823 c -17.40502,-7.58567 -21.91694,-17.68644 -26.28018,-35.74622 -0.83816,-3.4692 -2.29919,-21.98407 -2.50674,-25.62532"
             style="fill:none;stroke:none;stroke-opacity:1"
             clip-path="none"
             sodipodi:nodetypes="csscscccccccccccccssccsc" />
          <path
             id="sun-3"
             class="cls-4"
             d="m 324.47149,368.36704 c 29.23617,-13.83804 64.17923,-2.01048 79,26.74 2.12,-0.58 15.76,-15.74 20.47,-22.74 -2,-1.77 -5,-4.36 -9,-7.23 -11.09,-8.16 -14.91,-8.2 -21.69,-13.77 -4.88,-4 -12.62,-10.38 -14.11,-20.65 -0.12,-0.85 -1.7,-13.06 6.54,-21 5.83,-5.6 13.5,-6.11 20,-6.53 8,-0.53 55,8 59.89,9.29 3.82,1 5.26,1.76 6,3.12 0.74,1.36 0.1,2.33 0.63,4.86 0.43952,1.82059 1.22735,3.53887 2.32,5.06 2.59475,4.09722 5.41579,8.04668 8.45,11.83 2.33,2.95 4.93,6 7.81,9.08 5.53871,5.90065 11.55955,11.32944 18,16.23 3.59467,0.29867 7.15548,0.9178 10.64,1.85 8.52065,2.38796 16.4724,6.46927 23.38,12 6.44086,5.04705 11.86952,11.26625 16,18.33 1.46026,2.56884 4.42879,5.74784 5.49169,8.50493 m -52.22169,-82.78493 c -1.01714,2.33794 -2.77376,4.27726 -5,5.52 -6.72,3.81 -15.25,-0.36 -18.51,-2 -11,-5.38 -16.26,-15.25 -19.22,-20.82 -2.91122,-5.48054 -5.00985,-11.35537 -6.23,-17.44 7.52068,0.9221 14.92008,2.65209 22.07,5.16 10,3.52 17.15,6.14 22.42,13.17 1.51,2.11 7.19,9.69 4.44,16.46 z"
             style="fill:none;stroke:none;stroke-opacity:1"
             clip-path="none"
             sodipodi:nodetypes="cccccccccscccccccccccccccccc" />
          <path
             id="sun-1"
             class="cls-4"
             d="m 241.62387,330.71996 c 10.32446,-0.85738 19.35772,6.42 20.16792,16.17642 0.81021,9.75641 -6.89891,18.42414 -17.22337,19.28152 -10.32446,0.85738 -19.35771,-6.42 -20.16792,-16.17642 -0.81021,-9.75642 6.90887,-18.42497 17.23334,-19.28235 z m 38.75961,52.64289 c -11.89363,5.28242 -23.19736,9.57262 -41.04533,11.9077 -12.6706,1.65378 -25.41607,2.67202 -38.18852,3.0509 -14.11287,0.42943 -33.37735,-1.00118 -56.19779,-2.59807 0.55043,-2.02664 1.46649,-3.93565 2.70309,-5.63302 1.37079,-1.85983 2.90416,-3.09095 6.99072,-5.59775 5.36486,-3.30532 18.06499,-9.02599 19.18598,-11.47717 0.59516,-1.42549 0.7241,-3.00272 0.36836,-4.50595 -0.32266,-1.34792 -0.82084,-1.66779 -3.79947,-5.27365 -2.68974,-3.26861 -3.23592,-4.16649 -4.88081,-5.00323 -0.9472,-0.51999 -2.00193,-0.81362 -3.08157,-0.85792 -2.28373,-0.0712 -27.97717,14.36463 -38.69613,21.10484 -5.80529,3.66931 -11.07153,8.12891 -15.6471,13.25038 -0.94882,-2.15459 -1.14898,-4.56484 -0.56855,-6.84643 0.77643,-2.73363 16.63978,-20.02578 23.65584,-27.13079 10.78245,-10.92984 28.40013,-23.89232 31.14167,-24.5916 5.58392,-1.29844 11.41981,-1.00795 16.84719,0.83862 7.9459,2.52106 13.10902,7.6614 23.10642,17.84898 9.6014,9.76891 9.55184,11.70967 15.24529,15.14026 6.33941,3.83852 12.28931,4.91983 19.34116,6.22069 7.83239,1.56843 15.82923,2.15821 23.80697,1.75579 0,0 4.65478,-0.2561 19.4689,0.99218 1.63237,0.10532 3.2128,0.61552 4.59863,1.48452 1.04332,0.67621 1.94163,1.5533 2.6426,2.58015 -1.64207,0.88895 -4.04077,2.09159 -6.99755,3.34057 z"
             style="fill:none;stroke:none;stroke-opacity:1"
             sodipodi:nodetypes="csssccccccccccccccccccccccccccc" />
          <path
             style="fill:none;fill-opacity:1;stroke:none;stroke-width:0.707107;stroke-opacity:1"
             d="m 301.66926,382.2849 c -8.73783,5.48389 -10.0716,6.83237 -26.73176,12.09423 -19.75048,6.2379 -28.48366,7.86067 -49.72399,9.23953 -6.8059,0.44183 -14.78799,1.03009 -17.73798,1.30725 -5.75706,0.5409 -25.78251,-0.0581 -44.13386,-1.32018 -9.51761,-0.65455 -49.29103,-4.72364 -58.69278,-6.00468 l -2.83134,-0.38578 0.49573,-8.99836 c 0.72317,-13.12687 2.39636,-25.57043 5.53607,-41.17172 12.12826,-60.26575 39.8676,-112.66143 82.00111,-154.88844 13.19656,-13.22585 25.61901,-23.27881 43.14122,-34.91235 15.5519,-10.32539 21.07739,-13.51258 37.01327,-21.34987 53.52563,-26.32397 110.87365,-36.15997 168.22222,-28.85247 65.2365,8.31259 126.45756,38.73245 174.91089,86.91072 14.20609,14.12543 20.34817,21.27841 30.20053,35.17107 17.6478,24.88491 30.71344,50.86228 40.81631,81.15179 8.12018,24.34523 11.97347,41.63379 13.72953,61.60036 0.52596,5.98028 0.96707,12.80161 1.27031,19.00102 m 0.39682,10.66053 c 0.0516,2.31825 0.27755,7.02057 0.28439,11.62203 0.008,5.43442 -0.21974,10.65835 -0.39582,10.64236 M 226.01118,397.55415 c 25.05457,-2.38285 37.54302,-5.52342 56.59555,-14.23256 6.06591,-2.77281 6.54004,-3.65011 3.28483,-6.07812 -2.6655,-1.98816 -6.5815,-2.48372 -23.55495,-2.9808 -21.51368,-0.63004 -35.47004,-2.99008 -42.77996,-7.23412 -1.75008,-1.01608 -9.38684,-8.10008 -16.97056,-15.74222 -11.73999,-11.83044 -14.47145,-14.21965 -18.38477,-16.08127 -8.22892,-3.91458 -18.56479,-4.78064 -23.93176,-2.00527 -5.67639,2.93537 -20.3852,14.9641 -29.86158,24.4205 -10.618,10.59564 -20.37161,21.40789 -22.6729,25.13379 -1.44632,2.34167 -1.72765,6.74751 -0.56908,8.91231 0.68825,1.28601 1.20791,0.96295 6.66705,-4.14467 4.20514,-3.93436 9.05972,-7.41165 16.75447,-12.00108 15.30787,-9.13016 30.36037,-17.15524 32.18438,-17.15875 1.82354,-0.004 4.02766,1.85121 7.96403,6.70156 4.97407,6.12901 4.0696,7.55651 -9.23331,14.57245 -9.82702,5.18276 -14.81436,9.25031 -16.49635,13.45402 -0.64307,1.60719 -1.06838,3.023 -0.94512,3.14626 0.27638,0.27638 17.74471,1.59666 32.00844,2.41923 13.56216,0.78211 35.14222,0.30625 49.94159,-1.10126 z m 24.04148,-31.79036 c 4.14832,-1.41348 7.92855,-4.59204 10.34011,-8.69438 1.66003,-2.8239 1.94145,-4.08103 1.92745,-8.61 -0.0186,-6.01191 -1.39806,-9.38758 -5.40172,-13.21825 -7.68947,-7.35723 -20.79361,-6.92395 -28.31171,0.93613 -3.48786,3.64652 -4.80749,7.0706 -4.80749,12.47412 0,7.8999 4.65222,14.45602 12.24421,17.25509 3.22715,1.18981 10.31019,1.11765 14.00915,-0.14271 z"
             id="path35734"
             sodipodi:nodetypes="cssssscssssssssssccscssssssssssssscssssssssssssss" />
          <path
             style="fill:none;fill-opacity:1;stroke:none;stroke-width:0.707107;stroke-opacity:1"
             d="m 301.85528,469.72466 c -9.58756,-0.94631 -23.27539,-2.0857 -35.62915,-2.94719 -25.28506,-1.76325 -86.98523,-1.77946 -102.88403,-0.027 -13.68959,1.50892 -31.66374,4.25184 -43.05398,6.57018 -4.62316,0.94099 -8.49964,1.71089 -8.61441,1.71089 -0.11476,0 -0.36882,-0.55685 -0.56457,-1.23744 l -4.3e-4,-2e-5 c -1.79899,-6.25478 -9.34908,-55.85661 -8.61404,-56.59165 0.16392,-0.16392 12.01236,0.88562 26.32987,2.33232 38.08645,3.8484 54.09872,3.96571 90.02501,0.65966 9.23635,-0.84996 50.44835,-5.67447 64.56493,-7.54078"
             id="path37645"
             sodipodi:nodetypes="cssssccsssc" />
          <path
             style="fill:none;fill-opacity:1;stroke:none;stroke-width:0.707107;stroke-opacity:1"
             d="m 699.44013,423.80194 c 0.51612,1.34496 -3.77082,31.81735 -6.11286,43.4514 -2.07187,10.29201 -5.33048,22.55105 -6.24032,23.47637 -0.67792,0.68946 -21.34312,4.4131 -36.19516,6.52198 m 0,0 c -7.96835,1.13144 -16.34741,2.11575 -24.92122,2.92746 m -17.68493,1.40794 c -11.79609,0.76309 -23.67954,1.18016 -35.11911,1.18859 l -30.81563,-1.34335"
             id="path37762"
             sodipodi:nodetypes="csscccccc" />
          <path
             style="fill:none;fill-opacity:1;stroke:none;stroke-width:0.707107;stroke-opacity:1"
             d="m 542.3509,501.43233 c -8.08114,-0.4899 -15.54514,-1.02482 -22.97734,-1.67793 m -57.54923,-7.21906 c -10.0488,-1.53111 -21.32981,-3.33136 -34.37828,-5.46765 -20.38287,-3.33708 -50.24082,-7.96204 -56.76765,-8.92422"
             id="path37801"
             sodipodi:nodetypes="cccsc" />
          <g
             id="Vector-2"
             style="fill:none;stroke:none;stroke-opacity:1"
             transform="rotate(6.8699453,-526.99054,-849.5846)">
            <g
               id="draw-2"
               style="fill:none;stroke:none;stroke-opacity:1">
              <circle
                 id="cycle.wheel.front-4"
                 class="cls-2"
                 cx="644.32001"
                 cy="312.14001"
                 r="46"
                 style="fill:none;stroke:none;stroke-opacity:1" />
              <circle
                 id="cycle.wheel.back-8"
                 class="cls-2"
                 cx="488.39001"
                 cy="312.14001"
                 r="46"
                 style="fill:none;stroke:none;stroke-opacity:1" />
              <path
                 id="middle-59"
                 class="cls-2"
                 d="M 614.38207,464.54242 C 599.13626,455.58185 590.86748,441.17824 589.69,438.87 c -1.77,-3.56 -10.4,-21.79 -3.8,-43.82 8.14,-27.17 32.66,-37.58 35.93,-38.9 -0.80654,-1.96961 -1.7488,-3.88087 -2.82,-5.72 -1.68979,-2.92885 -3.70234,-5.65921 -6,-8.14 -2.24,-2.41 -3.6,-3.86 -5.79,-5.07 -2.84991,-1.44927 -6.02574,-2.13817 -9.22,-2 -5.39,-0.09 -11.8,-0.36 -20.26,-0.9 3.16235,5.59931 6.79191,10.92155 10.85,15.91 3,3.7 5.55,6.29 6.88,11 1.1058,3.40924 1.1058,7.08076 0,10.49 -1,2.87 -2.85,4.82 -7.06,8.32 -4.10245,3.36892 -8.38907,6.5071 -12.84,9.4 -5.44,3.7 -14,9.61 -21.71,18.45 -2.38521,2.74834 -4.57713,5.65864 -6.56,8.71 -0.47,4.82 -3.1,26.46 -21.56,41.69 -1.20289,0.99651 -2.43741,1.94045 -3.7003,2.83136 m -69.19978,-0.0309 C 438.07608,450.66803 428.6027,433.96831 427.55,415.5 c -0.14774,-2.99222 -0.0761,-5.9779 0.20904,-8.93438"
                 transform="translate(0.87,-100)"
                 style="fill:none;stroke:none;stroke-opacity:1"
                 sodipodi:nodetypes="ccscccccccccccccccccc" />
              <path
                 id="sun-9"
                 class="cls-4"
                 d="m 442.20085,374.31934 c 5.35241,-6.1814 11.5941,-12.25283 19.58915,-16.38934 2.16298,-1.02378 4.35719,-1.90708 6.57218,-2.65343 27.72423,-9.34191 58.70353,2.76999 72.42782,29.39343 2.12,-0.58 15.76,-15.74 20.47,-22.74 -2,-1.77 -5,-4.36 -9,-7.23 -11.09,-8.16 -14.91,-8.2 -21.69,-13.77 -4.88,-4 -12.62,-10.38 -14.11,-20.65 -0.12,-0.85 -1.7,-13.06 6.54,-21 5.83,-5.6 13.5,-6.11 20,-6.53 8,-0.53 55,8 59.89,9.29 3.82,1 5.26,1.76 6,3.12 0.74,1.36 0.1,2.33 0.63,4.86 0.43952,1.82059 1.22735,3.53887 2.32,5.06 2.59475,4.09722 5.41579,8.04668 8.45,11.83 2.33,2.95 4.93,6 7.81,9.08 5.53871,5.90065 11.55955,11.32944 18,16.23 3.59467,0.29867 7.15548,0.9178 10.64,1.85 8.52065,2.38796 16.4724,6.46927 23.38,12 6.44086,5.04705 11.86952,11.26625 16,18.33 0.95349,1.67735 3.09303,6.66921 4.53529,11.40618 0.36513,1.19923 2.07479,9.59756 1.83597,15.03524 -0.26256,5.97796 -0.84355,7.72786 -0.65038,8.22891 M 649.39,310.12 c -1.01714,2.33794 -2.77376,4.27726 -5,5.52 -6.72,3.81 -15.25,-0.36 -18.51,-2 -11,-5.38 -16.26,-15.25 -19.22,-20.82 -2.91122,-5.48054 -5.00985,-11.35537 -6.23,-17.44 7.52068,0.9221 14.92008,2.65209 22.07,5.16 10,3.52 17.15,6.14 22.42,13.17 1.51,2.11 7.19,9.69 4.44,16.46 z"
                 transform="translate(0.87,-100)"
                 style="fill:none;stroke:none;stroke-opacity:1"
                 sodipodi:nodetypes="ccsccccccccsccccccccsscccccccccc" />
            </g>
          </g>
          <path
             id="middle-6"
             class="cls-2"
             d="m 699.56336,401.60823 c -6.92308,-1.56438 -19.33146,-4.91201 -24.03736,-7.39651 -4.0288,-2.13836 -6.0727,-3.25062 -7.7032,-5.70142 -1.8103,-2.71887 -1.4504,-4.55464 -4.3167,-10.58944 -2.0416,-4.33489 -2.9929,-5.08141 -3.9338,-5.2016 -1.7742,-0.2326 -3.4803,1.75899 -4.9678,3.48154 -2.114,2.45732 -22.4744,24.99803 -28.3008,29.77098 17.6966,6.28553 34.359,15.16996 49.4398,26.36124 -10.4016,16.92029 -21.7783,33.2213 -34.0728,48.82049 -5.18034,6.58761 -10.3678,12.83401 -15.50628,18.74526 m -17.91794,1.68566 c 8.26951,-20.76403 19.98646,-40.02579 34.69072,-56.9573 -7.8007,-10.03199 -19.5325,-16.23283 -32.2156,-17.02756 -32.60282,42.35518 -68.45239,62.06301 -91.4317,72.16664"
             style="fill:none;stroke:none;stroke-opacity:1"
             sodipodi:nodetypes="cccccccccccccc" />
          <path
             id="sun-2"
             class="cls-4"
             d="m 678.8961,382.54926 c 4.44155,1.58132 16.59125,6.80541 20.20451,8.36671 m -145.00842,66.85574 c 11.73942,-11.24347 20.47251,-22.34941 27.32953,-31.19013 14.1088,-18.20405 38.09148,-47.52442 47.08558,-68.72701 -21.9485,-4.48568 -44.5078,-5.13814 -66.6789,-1.92843 5.8948,-4.42399 12.3908,-7.98395 19.2917,-10.57214 14.882,-5.56822 27.4543,-4.9436 39.5887,-4.21102 20.6822,1.24295 32.1942,1.93236 43.1873,10.38521 12.0923,9.26777 13.1204,23.10834 15,31.02107 m -14.4953,-45.2553 c -9.8715,3.14355 -20.303,-1.93044 -23.2736,-11.25888 -2.9706,-9.32843 2.6059,-19.50008 12.4775,-22.64364 9.8716,-3.14355 20.3125,1.92741 23.2831,11.25584 2.9706,9.32843 -2.6098,19.5538 -12.4909,22.70039 z"
             style="fill:none;stroke:none;stroke-opacity:1"
             sodipodi:nodetypes="cccccccccccssscc" />
          <path
             style="fill:none;fill-opacity:1;stroke:none;stroke-width:0.707107;stroke-opacity:1"
             d="m 556.47976,442.89421 c -0.0123,-10.68418 -0.15968,-12.0054 -1.92251,-17.22844 -3.6561,-10.83253 -12.36773,-22.55513 -22.4594,-30.22193 -5.31661,-4.03912 -15.73707,-9.28067 -20.85965,-10.49252 -4.17938,-0.98871 -7.22528,-3.66597 -14.81919,-13.02566 -6.83066,-8.41896 -11.75133,-15.87574 -16.38139,-24.82434 -3.09932,-5.9901 -3.8012,-7.99459 -3.8012,-10.85582 0,-2.61873 -0.36515,-3.84936 -1.43899,-4.8498 -2.22631,-2.07412 -28.24497,-10.43474 -50.53336,-16.23797 -21.42503,-5.57844 -34.33621,-2.60846 -40.13395,9.23208 -7.30525,14.91927 -1.77761,28.68671 17.33369,43.17225 7.8537,5.95277 18.20406,15.42278 18.20406,16.65572 0,0.83032 -11.19338,11.41424 -16.52374,15.62406 l -4.16091,3.28622 -3.1063,-6.05526 c -8.76067,-17.0776 -25.06175,-28.78345 -44.43467,-31.90864 -6.51492,-1.05096 -18.67559,-0.48991 -24.75892,1.1423 -6.1295,1.64459 -15.62968,6.86919 -21.65028,11.90651 -9.31457,7.79331 -14.65686,10.47324 -31.38273,15.74297 -18.27821,5.75882 -26.91601,7.33352 -49.85102,9.088 -29.79737,2.27943 -53.53178,1.14366 -113.41628,-5.42734 l -7.70381,-0.84532 0.44992,-8.88728 c 1.53154,-30.25279 10.83998,-69.85404 23.43109,-99.68379 20.213,-47.88688 52.54729,-90.176 91.22867,-119.31547 7.56769,-5.70089 25.21594,-17.43105 33.86998,-22.51215 21.4281,-12.58123 53.58798,-25.66894 78.10661,-31.78609 26.11342,-6.51503 45.20456,-8.88498 71.58083,-8.88595 31.69979,-0.001 59.37239,4.24488 88.32514,13.55252 63.06564,20.27416 121.34009,63.32561 156.81109,115.84743 23.94219,35.45112 42.91593,82.98492 48.88688,122.4734 1.54194,10.19752 3.33001,30.77298 2.72669,31.3763 -0.2051,0.2051 -4.44757,-1.34091 -9.42772,-3.43559 l -9.0548,-3.80851 -1.21326,-5.59733 c -4.99436,-23.04137 -16.97408,-32.43754 -44.4791,-34.8867 -23.27053,-2.07211 -35.9112,-1.68764 -47.37615,1.44093 -9.32253,2.54394 -26.94717,12.09714 -25.31996,13.72434 0.26421,0.26422 3.12596,0.14571 6.35944,-0.26334 10.49855,-1.32813 24.04063,-1.66512 34.50923,-0.85873 13.2045,1.01713 24.75637,2.81322 24.75637,3.84914 0,1.28392 -7.50721,14.29105 -12.90369,22.35719 -12.18035,18.20598 -39.33116,53.02129 -53.69072,68.84723 l -3.76271,4.14696 -0.0133,-11.57158 z M 226.79273,398.08444 c 19.26551,-1.86553 32.15632,-4.52245 44.15193,-9.10014 9.21944,-3.51828 16.98565,-7.34489 17.4704,-8.60812 0.59839,-1.55937 -2.36897,-4.29201 -5.65881,-5.21119 -1.50808,-0.42136 -9.74232,-1.0899 -18.29831,-1.48566 -26.90634,-1.24452 -40.41639,-3.7807 -46.15502,-8.66446 -1.44944,-1.23353 -8.30726,-7.76259 -15.2396,-14.50902 -13.74329,-13.37476 -16.89748,-15.74474 -23.78924,-17.87462 -5.51385,-1.70405 -14.95718,-1.93839 -18.49779,-0.45903 -6.73869,2.8156 -27.62573,20.81449 -40.86431,35.21381 -13.69241,14.89294 -14.99584,17.04374 -13.89262,22.92442 0.66342,3.53631 2.19671,3.20065 7.74231,-1.69492 8.33057,-7.35407 23.24489,-16.67897 41.4385,-25.90863 7.47956,-3.7944 7.79914,-3.88796 9.49178,-2.7789 2.16026,1.41546 6.42301,6.54827 7.61992,9.1752 0.82518,1.81107 0.72989,2.08304 -1.33165,3.80077 -1.22123,1.01758 -6.13247,4.05067 -10.91388,6.7402 -9.51881,5.35431 -14.7641,9.94158 -16.14215,14.11709 -0.48181,1.4599 -0.73862,2.79175 -0.57069,2.95968 0.16794,0.16793 6.80226,0.778 14.74294,1.35569 7.94069,0.5777 16.1877,1.17992 18.3267,1.33828 7.49528,0.55489 39.67825,-0.29518 50.36959,-1.33045 z m 25.73946,-32.72233 c 3.67184,-1.90099 6.97756,-5.1772 8.77107,-8.69278 1.88381,-3.69257 1.90707,-12.54703 0.0435,-16.56348 -4.21668,-9.08804 -16.88839,-13.2953 -26.78491,-8.89313 -15.13464,6.73219 -15.22879,27.67315 -0.15596,34.68951 4.30613,2.00449 13.75512,1.72293 18.12629,-0.54012 z M 510.4606,348.66617 c 3.08677,-1.28975 5.89941,-5.05496 6.47773,-8.67158 0.98406,-6.15395 -3.18433,-15.2091 -9.69649,-21.0641 -4.37411,-3.9327 -17.69456,-10.75759 -27.53196,-14.10632 -10.25324,-3.49028 -10.12904,-3.51153 -9.54695,1.63351 1.0996,9.71916 6.11467,22.59255 11.66543,29.94448 7.51285,9.95069 20.67539,15.58859 28.63224,12.26401 z M 664.97274,337.9372 c 4.33602,-1.28766 9.35358,-5.53651 11.4949,-9.73384 3.57435,-7.0063 2.31709,-14.99339 -3.26039,-20.71242 -7.36364,-7.55053 -18.86969,-7.90376 -26.91033,-0.8261 -11.37512,10.01278 -7.71037,27.33271 6.71162,31.71967 2.98153,0.90695 8.04088,0.71779 11.9642,-0.44731 z"
             id="path41644" />
          <path
             style="fill:#c5d3e3;fill-opacity:0.8;stroke:none;stroke-width:0.707107"
             d="m 556.31424,451.47517 c 1.02082,-6.10164 0.46929,-16.99583 -1.18133,-23.33452 -4.79783,-18.42454 -21.90924,-35.98448 -41.06628,-42.14275 -3.30572,-1.06267 -6.36434,-2.01172 -6.79692,-2.109 -1.40018,-0.31487 -14.44017,-16.01222 -19.0498,-22.93186 -7.47956,-11.22777 -11.60056,-19.58207 -11.61637,-23.54932 -0.0185,-4.62909 -0.92269,-5.99515 -5.22908,-7.89964 -4.15261,-1.83648 -31.76073,-10.25971 -46.75684,-14.2655 -8.65317,-2.31145 -10.92326,-2.64759 -18.03122,-2.66997 -7.40658,-0.0233 -8.47854,0.14325 -12.02082,1.86778 -4.77073,2.32258 -5.47492,2.89689 -8.61802,7.02844 -3.37633,4.43811 -5.1219,11.02122 -4.6545,17.55364 0.69322,9.68871 7.07509,18.61682 20.64768,28.88574 3.91629,2.96303 9.66612,7.87151 12.77739,10.90774 l 5.65685,5.52042 -5.65685,5.30584 c -6.2305,5.8439 -14.7569,13.04259 -15.44811,13.04259 -0.24279,0 -1.44291,-1.98873 -2.66694,-4.41941 -7.84354,-15.57573 -21.61976,-26.93951 -38.51342,-31.76909 -8.17417,-2.33685 -23.67083,-2.34187 -31.75988,-0.0103 -8.07698,2.32809 -17.17609,7.64303 -24.04163,14.04311 -2.27816,2.1237 -8.17334,5.67996 -13.10228,7.90391 -9.95797,4.49306 -32.02051,10.74346 -44.13845,12.50458 -19.6488,2.85561 -51.90313,3.91533 -74.28113,2.44055 -9.66077,-0.63668 -54.65467,-5.00786 -63.99317,-6.21696 l -3.88908,-0.50355 0.23192,-7.41623 c 0.28955,-9.25877 2.35804,-25.91822 4.75378,-38.28648 12.36681,-63.8449 41.23324,-118.02527 86.08005,-161.56649 11.48304,-11.14876 21.39394,-19.13377 36.21347,-29.1765 16.14306,-10.93965 22.93496,-14.93049 38.53732,-22.64412 36.45418,-18.02252 71.66991,-27.99353 110.36444,-31.24868 13.95812,-1.17421 45.51998,-0.38983 59.34118,1.47477 33.71747,4.54877 63.13617,13.59263 93.55412,28.76029 32.39624,16.15413 58.3032,35.25825 85.3439,62.9337 15.25299,15.61104 23.98991,26.81312 35.94536,46.0875 23.66152,38.14673 40.66145,87.56989 43.94675,127.76449 1.26831,15.51742 1.28152,15.99024 0.44061,15.76558 -0.43076,-0.11507 -4.63497,-1.79973 -9.34266,-3.74367 l -8.55947,-3.53446 -1.52221,-6.74983 c -4.46777,-19.81098 -15.40727,-29.7695 -36.11893,-32.88006 -3.71702,-0.55824 -13.22091,-1.39182 -21.11975,-1.8524 -16.40531,-0.9566 -25.06032,-0.31073 -35.19598,2.62647 -13.0772,3.78962 -31.09266,15.01266 -21.68351,13.5081 7.25444,-1.16001 24.10848,-1.96413 32.35014,-1.54347 11.96055,0.61049 30.75915,2.95772 30.75915,3.84065 0,1.23433 -9.33871,17.01283 -14.68776,24.81614 -13.81555,20.15443 -41.06121,54.87798 -51.59898,65.76093 l -5.13509,5.3033 z M 211.77848,399.1397 c 23.80941,-1.24737 39.64906,-3.72393 54.09367,-8.45765 8.60659,-2.82052 21.37967,-8.47072 22.21889,-9.8286 0.83783,-1.35565 -0.18131,-3.2503 -2.47819,-4.60711 -2.40085,-1.41821 -8.02295,-2.00425 -31.05441,-3.23708 -15.78044,-0.84469 -25.91992,-2.63007 -32.18949,-5.66798 -3.3418,-1.61927 -7.47747,-5.17493 -19.20753,-16.51378 -15.58834,-15.06844 -18.09419,-16.88018 -26.00877,-18.80444 -1.93223,-0.46978 -5.84268,-0.86329 -8.6899,-0.87445 -6.68213,-0.0262 -9.99892,1.56354 -20.33201,9.74519 -8.86588,7.01994 -33.68416,31.61161 -38.74457,38.39082 -3.27325,4.38501 -3.3752,4.66867 -3.17423,8.83173 0.28455,5.89468 1.36193,5.91823 7.9485,0.17377 8.2627,-7.20628 21.38094,-15.44198 39.70614,-24.92769 6.98157,-3.61389 9.06759,-4.40766 10.11297,-3.84819 2.15061,1.15098 7.82691,7.84093 8.32007,9.80586 0.61021,2.43124 -2.30293,4.91184 -11.77914,10.03018 -8.85223,4.78131 -15.19815,10.28344 -16.36943,14.19285 -0.45923,1.53276 -0.66504,2.95675 -0.45736,3.16443 0.3191,0.31909 18.91276,1.8428 32.3759,2.65313 8.8016,0.52976 23.06361,0.44149 35.70889,-0.22099 z m 40.47232,-33.4623 c 8.87574,-4.66488 13.03737,-14.8656 9.78406,-23.98199 -5.37491,-15.06148 -27.79904,-16.68523 -36.29102,-2.62789 -2.06301,3.41505 -2.2981,4.35972 -2.2981,9.23481 0,4.55182 0.31467,6.03211 1.94455,9.14759 2.17482,4.15715 5.71233,7.35927 9.81287,8.88251 3.70236,1.37532 13.93244,0.98226 17.04764,-0.65503 z m 258.89113,-17.48768 c 4.3581,-2.47821 5.39957,-4.5148 5.39957,-10.55874 0,-4.48391 -0.32775,-5.95494 -2.12132,-9.52089 -2.96593,-5.89685 -8.06828,-10.68769 -15.94634,-14.97278 -9.7036,-5.27806 -27.41755,-11.92765 -28.60663,-10.73857 -0.62324,0.62324 1.663,12.06234 3.46932,17.35855 2.90574,8.51972 6.6893,14.99579 11.71249,20.04741 8.71801,8.76736 19.38974,12.19675 26.09291,8.38502 z m 156.09567,-11.1261 c 7.22297,-3.68833 11.17211,-9.87591 11.0959,-17.38518 -0.074,-7.29342 -3.26363,-12.52019 -9.59969,-15.73091 -13.22528,-6.70176 -29.06734,2.54341 -29.06734,16.96323 0,7.83498 4.95545,14.74065 12.26433,17.09098 4.36226,1.40278 11.59005,0.95981 15.3068,-0.93812 z"
             id="path42467"
             inkscape:export-filename="C:\Users\fgibault\Documents\Personnel\USML TRI\Logos\USML TRI\2021.11.01 - USMLTRI Logo [v0007] - v2.1 Blue 3.png"
             inkscape:export-xdpi="96"
             inkscape:export-ydpi="96" />
          <path
             style="fill:#5082ba;fill-opacity:1;stroke:none;stroke-width:0.707107;stroke-opacity:1"
             d="m 111.08116,470.39028 c -2.33007,-11.65791 -8.08284,-50.22679 -7.70965,-51.68859 0.16789,-0.65767 4.96697,-0.40767 20.37218,1.06125 53.38826,5.09068 65.26336,4.80642 133.22283,-3.18901 l 25.0362,-2.9455 -0.3903,7.92491 c -0.24098,4.89303 -0.0512,10.03612 0.49612,13.4433 1.74075,10.83693 7.06548,22.25639 13.94646,29.9097 l 3.39448,3.77548 -6.00529,-0.478 c -3.30291,-0.2629 -12.52834,-1.02172 -20.50097,-1.68626 -11.71647,-0.97661 -18.99742,-1.91612 -55.86144,-1.91928 -16.81842,-0.002 -31.77974,0.71611 -39.24717,0.81825 -20.54856,0.49831 -38.83388,3.21244 -59.88921,7.65515 -2.69543,0.567 -5.17561,1.03091 -5.51152,1.03091 -0.33591,0 -0.94463,-1.67054 -1.35272,-3.71231 z"
             id="path42506"
             sodipodi:nodetypes="sssscssscsscccss" />
          <path
             style="fill:#5082ba;fill-opacity:1;stroke:none;stroke-width:0.707107"
             d="m 333.67917,469.50329 c -28.29544,-5.63843 -44.40998,-36.09059 -32.87815,-62.13086 7.60706,-17.17765 25.76835,-28.38146 43.92868,-27.09987 23.83862,1.68232 42.15482,21.0198 42.32607,44.68611 0.0568,7.84678 -1.00188,12.40402 -4.68153,20.15254 -5.73607,12.07888 -18.26556,21.683 -31.79624,24.37249 -6.44087,1.28026 -10.54853,1.28501 -16.89883,0.0196 z"
             id="path42545" />
          <path
             style="fill:#5082ba;fill-opacity:1;stroke:none;stroke-width:0.707107"
             d="m 485.93476,487.56744 c -16.59902,-4.48752 -29.375,-17.78083 -33.07576,-34.41507 -2.35318,-10.57707 -0.20181,-23.07488 5.62256,-32.66283 2.934,-4.82988 10.7456,-12.53129 15.54899,-15.32964 21.06133,-12.26988 47.22459,-6.05664 60.65014,14.40317 11.52511,17.56364 9.08394,41.13739 -5.7877,55.89037 -8.85,8.77939 -18.18136,12.85152 -30.38271,13.25874 -5.76527,0.19242 -8.57581,-0.0634 -12.57552,-1.14474 z"
             id="path42621" />
          <path
             style="fill:#5082ba;fill-opacity:1;stroke:none;stroke-width:0.707107"
             d="m 454.61074,490.81315 c -0.16205,-0.14299 -18.11372,-3.03836 -39.89261,-6.43414 -21.77889,-3.39579 -40.03349,-6.30617 -40.56579,-6.46753 -0.60153,-0.18235 0.0675,-0.99015 1.76777,-2.13444 11.27999,-7.59153 20.16647,-19.79914 24.38201,-33.49426 1.49699,-4.8633 2.08612,-5.75206 7.10078,-10.71216 6.40824,-6.33852 13.63898,-11.28167 26.5971,-18.18257 5.1603,-2.74815 10.83068,-5.99309 12.60084,-7.21099 1.77015,-1.2179 3.39079,-2.04203 3.60142,-1.8314 0.21062,0.21062 -0.72788,1.75274 -2.08555,3.42691 -3.71886,4.58579 -6.55598,10.08408 -9.05048,17.53965 -1.8959,5.66647 -2.30319,8.10047 -2.6031,15.55635 -0.72848,18.11068 4.48704,31.73176 17.38558,45.4049 4.09179,4.33751 4.36066,4.79968 2.79222,4.79968 -0.95456,0 -1.86815,-0.117 -2.03019,-0.26 z"
             id="path42660" />
          <path
             style="fill:#5082ba;fill-opacity:1;stroke:none;stroke-width:0.707107"
             d="m 454.93586,398.79729 c 2.79304,-7.43064 1.93567,-13.21788 -3.2138,-21.69314 -5.26065,-8.65826 -9.25013,-16.84876 -8.19722,-16.8291 0.49047,0.009 5.57925,0.78095 11.30839,1.7151 11.94455,1.94758 14.68522,3.15824 18.51339,8.17806 2.53707,3.32682 6.18221,10.12313 7.11516,13.2661 0.40162,1.35299 0.12212,1.73309 -1.75581,2.38774 -4.92844,1.71807 -14.71209,6.93467 -18.37946,9.79986 -6.40955,5.00757 -5.98543,4.75774 -5.39065,3.17538 z"
             id="path42699" />
          <path
             style="fill:#5082ba;fill-opacity:1;stroke:none;stroke-width:0.707107"
             d="m 554.72527,501.28883 c -9.72272,-0.47103 -20.89162,-1.09069 -24.81978,-1.37701 l -7.14212,-0.52058 9.26344,-4.73003 c 15.37414,-7.85023 29.13362,-16.9238 42.6086,-28.09788 8.09666,-6.71413 24.72553,-23.47147 31.63751,-31.88195 5.36218,-6.52469 5.60809,-6.61627 12.76209,-4.75289 5.96336,1.55326 13.43883,5.70692 18.19378,10.10916 2.26438,2.09642 4.11706,4.08221 4.11706,4.41287 0,0.33065 -2.23475,3.3865 -4.96611,6.79076 -9.57754,11.93711 -18.02689,25.73908 -24.81733,40.53898 l -4.0554,8.83883 -4.82411,0.45435 c -10.05488,0.94701 -30.92159,1.04073 -47.95763,0.21539 z"
             id="path42738" />
          <path
             style="fill:#5082ba;fill-opacity:1;stroke:none;stroke-width:0.707107"
             d="m 629.39066,497.71047 c 6.23348,-7.38325 15.23031,-18.73406 21.51431,-27.14342 7.66263,-10.25427 25.79622,-37.193 25.79622,-38.3221 0,-0.32925 -4.08628,-3.29272 -9.08062,-6.58548 -9.869,-6.50664 -23.1468,-13.54302 -32.63868,-17.29641 -3.30572,-1.30719 -6.12843,-2.4686 -6.27269,-2.58092 -0.14426,-0.11232 4.50819,-5.23039 10.33877,-11.3735 5.83057,-6.1431 12.15346,-12.95012 14.05086,-15.12671 4.70385,-5.39599 5.70689,-6.00479 7.3875,-4.48386 0.73004,0.66067 2.48012,4.17637 3.88907,7.81267 2.87296,7.41469 4.76343,9.54301 11.16771,12.57272 3.75683,1.77727 20.01925,6.79424 22.0234,6.79424 4.64593,0 -0.89156,51.83891 -8.63638,80.84909 -1.44611,5.41675 -2.1833,7.07971 -3.33074,7.51346 -4.01479,1.51765 -39.58881,7.19686 -51.32461,8.19372 -5.84116,0.49615 -5.97869,0.47296 -4.88412,-0.8235 z"
             id="path42777"
             inkscape:export-filename="2021.11.01 - USMLTRI Logo [v0007] - v2.1 Blue 3.png"
             inkscape:export-xdpi="96"
             inkscape:export-ydpi="96" />
        </g>
        <text
           id="usml_triathlon"
           class="cls-1"
           x="36.975842"
           y="640.53333"
           style="font-size:53.3333px;line-height:0;font-family:FlighterPERSONALUSEONLY, 'Flighter PERSONAL USE ONLY';fill:#5082ba"><tspan
             style="font-style:italic;font-variant:normal;font-weight:normal;font-stretch:normal;font-size:96px;font-family:Sans;-inkscape-font-specification:'Sans, Italic';font-variant-ligatures:normal;font-variant-caps:normal;font-variant-numeric:normal;font-variant-east-asian:normal"
             id="tspan347">Le TRIATHLON de</tspan></text>
        <text
           id="usml_triathlon-4"
           class="cls-1"
           x="-3.2958441"
           y="733.53333"
           style="font-size:53.3333px;line-height:0;font-family:FlighterPERSONALUSEONLY, 'Flighter PERSONAL USE ONLY';fill:#5082ba"><tspan
             style="font-style:italic;font-variant:normal;font-weight:normal;font-stretch:normal;font-size:96px;font-family:Sans;-inkscape-font-specification:'Sans, Italic';font-variant-ligatures:normal;font-variant-caps:normal;font-variant-numeric:normal;font-variant-east-asian:normal"
             id="tspan347-9">MAISONS-LAFFITTE</tspan></text>
      </g>
    </g>
  </g>
</svg>
